<svg width="129" height="129" viewBox="0 0 129 129" fill="none" xmlns="http://www.w3.org/2000/svg">
<g filter="url(#filter0_d_1_758)">
<circle cx="64.2419" cy="57.0564" r="35.5" fill="#052A44"/>
</g>
<g clip-path="url(#clip0_1_758)">
<path d="M70.4541 57.0564H58.7391V61.1389H70.4541V57.0564ZM75.8845 47.4243L69.9111 41.173C69.6365 40.8859 69.2643 40.7264 68.8738 40.7264H68.5016V48.8914H76.3116V48.5023C76.3116 48.1005 76.1591 47.7113 75.8845 47.4243ZM66.5491 49.4018V40.7264H54.346C53.5345 40.7264 52.8816 41.409 52.8816 42.2574V71.8555C52.8816 72.7039 53.5345 73.3864 54.346 73.3864H74.8472C75.6587 73.3864 76.3116 72.7039 76.3116 71.8555V50.9327H68.0135C67.2081 50.9327 66.5491 50.2438 66.5491 49.4018ZM56.7866 45.3193C56.7866 45.0373 57.005 44.8089 57.2747 44.8089H62.156C62.4257 44.8089 62.6441 45.0373 62.6441 45.3193V46.3399C62.6441 46.6218 62.4257 46.8502 62.156 46.8502H57.2747C57.005 46.8502 56.7866 46.6218 56.7866 46.3399V45.3193ZM56.7866 49.4018C56.7866 49.1198 57.005 48.8914 57.2747 48.8914H62.156C62.4257 48.8914 62.6441 49.1198 62.6441 49.4018V50.4224C62.6441 50.7043 62.4257 50.9327 62.156 50.9327H57.2747C57.005 50.9327 56.7866 50.7043 56.7866 50.4224V49.4018ZM72.4066 68.7936C72.4066 69.0756 72.1882 69.3039 71.9185 69.3039H67.0372C66.7675 69.3039 66.5491 69.0756 66.5491 68.7936V67.773C66.5491 67.4911 66.7675 67.2627 67.0372 67.2627H71.9185C72.1882 67.2627 72.4066 67.4911 72.4066 67.773V68.7936ZM72.4066 56.0358V62.1596C72.4066 62.7235 71.9697 63.1802 71.4303 63.1802H57.7628C57.2235 63.1802 56.7866 62.7235 56.7866 62.1596V56.0358C56.7866 55.4719 57.2235 55.0152 57.7628 55.0152H71.4303C71.9697 55.0152 72.4066 55.4719 72.4066 56.0358Z" fill="white"/>
</g>
<defs>
<filter id="filter0_d_1_758" x="0.000118256" y="2.76566e-05" width="128.484" height="128.484" filterUnits="userSpaceOnUse" color-interpolation-filters="sRGB">
<feFlood flood-opacity="0" result="BackgroundImageFix"/>
<feColorMatrix in="SourceAlpha" type="matrix" values="0 0 0 0 0 0 0 0 0 0 0 0 0 0 0 0 0 0 127 0" result="hardAlpha"/>
<feOffset dy="7.18546"/>
<feGaussianBlur stdDeviation="14.3709"/>
<feColorMatrix type="matrix" values="0 0 0 0 0.212 0 0 0 0 0.238778 0 0 0 0 0.533333 0 0 0 0.06 0"/>
<feBlend mode="normal" in2="BackgroundImageFix" result="effect1_dropShadow_1_758"/>
<feBlend mode="normal" in="SourceGraphic" in2="effect1_dropShadow_1_758" result="shape"/>
</filter>
<clipPath id="clip0_1_758">
<rect width="23.43" height="32.66" fill="white" transform="translate(52.8816 40.7264)"/>
</clipPath>
</defs>
</svg>
